<svg xmlns="http://www.w3.org/2000/svg" version="1.1" xmlns:xlink="http://www.w3.org/1999/xlink" xmlns:svgjs="http://svgjs.dev/svgjs" viewBox="0 0 2400 800" opacity="0.94">
  <defs>
    <linearGradient x1="50%" y1="0%" x2="50%" y2="100%" id="sssurf-grad">
      <stop stop-color="hsl(162, 100%, 58%)" stop-opacity="1" offset="0%"></stop>
      <stop stop-color="hsl(270, 73%, 53%)" stop-opacity="1" offset="100%"></stop>
    </linearGradient>
  </defs>
  <g fill="url(#sssurf-grad)" transform="matrix(1,0,0,1,6.8720703125,216.50018310546875)">
    <path d="M-10,10C63.51190476190476,15.416666666666666,197.91666666666666,42.25,342.85714285714283,36C487.79761904761904,29.75,542.8571428571429,-26.25,685.7142857142857,-20C828.5714285714284,-13.75,885.7142857142856,70.375,1028.5714285714284,66C1171.4285714285713,61.625,1228.5714285714284,-36.833333333333336,1371.4285714285713,-41C1514.2857142857142,-45.166666666666664,1571.4285714285713,51.208333333333336,1714.2857142857142,46C1857.142857142857,40.791666666666664,1914.285714285714,-66.20833333333333,2057.142857142857,-66C2199.9999999999995,-65.79166666666667,2276.4880952380954,-50.08333333333334,2400,47C2523.5119047619046,144.08333333333334,3254.1666666666665,222.29166666666669,2650,400C2045.8333333333335,577.7083333333333,156.25,795.8333333333334,-500,900" transform="matrix(1,0,0,1,0,37)" opacity="0.05"></path>
    <path d="M-10,10C63.51190476190476,15.416666666666666,197.91666666666666,42.25,342.85714285714283,36C487.79761904761904,29.75,542.8571428571429,-26.25,685.7142857142857,-20C828.5714285714284,-13.75,885.7142857142856,70.375,1028.5714285714284,66C1171.4285714285713,61.625,1228.5714285714284,-36.833333333333336,1371.4285714285713,-41C1514.2857142857142,-45.166666666666664,1571.4285714285713,51.208333333333336,1714.2857142857142,46C1857.142857142857,40.791666666666664,1914.285714285714,-66.20833333333333,2057.142857142857,-66C2199.9999999999995,-65.79166666666667,2276.4880952380954,-50.08333333333334,2400,47C2523.5119047619046,144.08333333333334,3254.1666666666665,222.29166666666669,2650,400C2045.8333333333335,577.7083333333333,156.25,795.8333333333334,-500,900" transform="matrix(1,0,0,1,0,74)" opacity="0.19"></path>
    <path d="M-10,10C63.51190476190476,15.416666666666666,197.91666666666666,42.25,342.85714285714283,36C487.79761904761904,29.75,542.8571428571429,-26.25,685.7142857142857,-20C828.5714285714284,-13.75,885.7142857142856,70.375,1028.5714285714284,66C1171.4285714285713,61.625,1228.5714285714284,-36.833333333333336,1371.4285714285713,-41C1514.2857142857142,-45.166666666666664,1571.4285714285713,51.208333333333336,1714.2857142857142,46C1857.142857142857,40.791666666666664,1914.285714285714,-66.20833333333333,2057.142857142857,-66C2199.9999999999995,-65.79166666666667,2276.4880952380954,-50.08333333333334,2400,47C2523.5119047619046,144.08333333333334,3254.1666666666665,222.29166666666669,2650,400C2045.8333333333335,577.7083333333333,156.25,795.8333333333334,-500,900" transform="matrix(1,0,0,1,0,111)" opacity="0.32"></path>
    <path d="M-10,10C63.51190476190476,15.416666666666666,197.91666666666666,42.25,342.85714285714283,36C487.79761904761904,29.75,542.8571428571429,-26.25,685.7142857142857,-20C828.5714285714284,-13.75,885.7142857142856,70.375,1028.5714285714284,66C1171.4285714285713,61.625,1228.5714285714284,-36.833333333333336,1371.4285714285713,-41C1514.2857142857142,-45.166666666666664,1571.4285714285713,51.208333333333336,1714.2857142857142,46C1857.142857142857,40.791666666666664,1914.285714285714,-66.20833333333333,2057.142857142857,-66C2199.9999999999995,-65.79166666666667,2276.4880952380954,-50.08333333333334,2400,47C2523.5119047619046,144.08333333333334,3254.1666666666665,222.29166666666669,2650,400C2045.8333333333335,577.7083333333333,156.25,795.8333333333334,-500,900" transform="matrix(1,0,0,1,0,148)" opacity="0.46"></path>
    <path d="M-10,10C63.51190476190476,15.416666666666666,197.91666666666666,42.25,342.85714285714283,36C487.79761904761904,29.75,542.8571428571429,-26.25,685.7142857142857,-20C828.5714285714284,-13.75,885.7142857142856,70.375,1028.5714285714284,66C1171.4285714285713,61.625,1228.5714285714284,-36.833333333333336,1371.4285714285713,-41C1514.2857142857142,-45.166666666666664,1571.4285714285713,51.208333333333336,1714.2857142857142,46C1857.142857142857,40.791666666666664,1914.285714285714,-66.20833333333333,2057.142857142857,-66C2199.9999999999995,-65.79166666666667,2276.4880952380954,-50.08333333333334,2400,47C2523.5119047619046,144.08333333333334,3254.1666666666665,222.29166666666669,2650,400C2045.8333333333335,577.7083333333333,156.25,795.8333333333334,-500,900" transform="matrix(1,0,0,1,0,185)" opacity="0.59"></path>
    <path d="M-10,10C63.51190476190476,15.416666666666666,197.91666666666666,42.25,342.85714285714283,36C487.79761904761904,29.75,542.8571428571429,-26.25,685.7142857142857,-20C828.5714285714284,-13.75,885.7142857142856,70.375,1028.5714285714284,66C1171.4285714285713,61.625,1228.5714285714284,-36.833333333333336,1371.4285714285713,-41C1514.2857142857142,-45.166666666666664,1571.4285714285713,51.208333333333336,1714.2857142857142,46C1857.142857142857,40.791666666666664,1914.285714285714,-66.20833333333333,2057.142857142857,-66C2199.9999999999995,-65.79166666666667,2276.4880952380954,-50.08333333333334,2400,47C2523.5119047619046,144.08333333333334,3254.1666666666665,222.29166666666669,2650,400C2045.8333333333335,577.7083333333333,156.25,795.8333333333334,-500,900" transform="matrix(1,0,0,1,0,222)" opacity="0.73"></path>
    <path d="M-10,10C63.51190476190476,15.416666666666666,197.91666666666666,42.25,342.85714285714283,36C487.79761904761904,29.75,542.8571428571429,-26.25,685.7142857142857,-20C828.5714285714284,-13.75,885.7142857142856,70.375,1028.5714285714284,66C1171.4285714285713,61.625,1228.5714285714284,-36.833333333333336,1371.4285714285713,-41C1514.2857142857142,-45.166666666666664,1571.4285714285713,51.208333333333336,1714.2857142857142,46C1857.142857142857,40.791666666666664,1914.285714285714,-66.20833333333333,2057.142857142857,-66C2199.9999999999995,-65.79166666666667,2276.4880952380954,-50.08333333333334,2400,47C2523.5119047619046,144.08333333333334,3254.1666666666665,222.29166666666669,2650,400C2045.8333333333335,577.7083333333333,156.25,795.8333333333334,-500,900" transform="matrix(1,0,0,1,0,259)" opacity="0.86"></path>
    <path d="M-10,10C63.51190476190476,15.416666666666666,197.91666666666666,42.25,342.85714285714283,36C487.79761904761904,29.75,542.8571428571429,-26.25,685.7142857142857,-20C828.5714285714284,-13.75,885.7142857142856,70.375,1028.5714285714284,66C1171.4285714285713,61.625,1228.5714285714284,-36.833333333333336,1371.4285714285713,-41C1514.2857142857142,-45.166666666666664,1571.4285714285713,51.208333333333336,1714.2857142857142,46C1857.142857142857,40.791666666666664,1914.285714285714,-66.20833333333333,2057.142857142857,-66C2199.9999999999995,-65.79166666666667,2276.4880952380954,-50.08333333333334,2400,47C2523.5119047619046,144.08333333333334,3254.1666666666665,222.29166666666669,2650,400C2045.8333333333335,577.7083333333333,156.25,795.8333333333334,-500,900" transform="matrix(1,0,0,1,0,296)" opacity="1.00"></path>
  </g>
</svg>