<svg xmlns="http://www.w3.org/2000/svg" version="1.1" xmlns:xlink="http://www.w3.org/1999/xlink" xmlns:svgjs="http://svgjs.dev/svgjs" viewBox="0 0 800 800" opacity="0.46">
  <g stroke="hsl(32, 8%, 61%)" fill="none" stroke-linecap="round">
    <circle r="580" cx="400" cy="400" stroke-width="4.5" stroke-dasharray="2405 3644" transform="rotate(360, 400, 400)" opacity="0.05"></circle>
    <circle r="560" cx="400" cy="400" stroke-width="4.5" stroke-dasharray="2239 3519" transform="rotate(347, 400, 400)" opacity="0.08"></circle>
    <circle r="540" cx="400" cy="400" stroke-width="4.5" stroke-dasharray="2079 3393" transform="rotate(334, 400, 400)" opacity="0.12"></circle>
    <circle r="520" cx="400" cy="400" stroke-width="4.5" stroke-dasharray="1925 3267" transform="rotate(321, 400, 400)" opacity="0.15"></circle>
    <circle r="500" cx="400" cy="400" stroke-width="4.5" stroke-dasharray="1777 3142" transform="rotate(309, 400, 400)" opacity="0.19"></circle>
    <circle r="480" cx="400" cy="400" stroke-width="4.5" stroke-dasharray="1635 3016" transform="rotate(296, 400, 400)" opacity="0.22"></circle>
    <circle r="460" cx="400" cy="400" stroke-width="4.5" stroke-dasharray="1499 2890" transform="rotate(283, 400, 400)" opacity="0.25"></circle>
    <circle r="440" cx="400" cy="400" stroke-width="4.5" stroke-dasharray="1368 2765" transform="rotate(270, 400, 400)" opacity="0.29"></circle>
    <circle r="420" cx="400" cy="400" stroke-width="4.5" stroke-dasharray="1244 2639" transform="rotate(257, 400, 400)" opacity="0.32"></circle>
    <circle r="400" cx="400" cy="400" stroke-width="4.5" stroke-dasharray="1126 2513" transform="rotate(244, 400, 400)" opacity="0.36"></circle>
    <circle r="380" cx="400" cy="400" stroke-width="4.5" stroke-dasharray="1013 2388" transform="rotate(231, 400, 400)" opacity="0.39"></circle>
    <circle r="360" cx="400" cy="400" stroke-width="4.5" stroke-dasharray="906 2262" transform="rotate(219, 400, 400)" opacity="0.42"></circle>
    <circle r="340" cx="400" cy="400" stroke-width="4.5" stroke-dasharray="806 2136" transform="rotate(206, 400, 400)" opacity="0.46"></circle>
    <circle r="320" cx="400" cy="400" stroke-width="4.5" stroke-dasharray="711 2011" transform="rotate(193, 400, 400)" opacity="0.49"></circle>
    <circle r="300" cx="400" cy="400" stroke-width="4.5" stroke-dasharray="622 1885" transform="rotate(180, 400, 400)" opacity="0.53"></circle>
    <circle r="280" cx="400" cy="400" stroke-width="4.5" stroke-dasharray="539 1759" transform="rotate(167, 400, 400)" opacity="0.56"></circle>
    <circle r="260" cx="400" cy="400" stroke-width="4.5" stroke-dasharray="462 1634" transform="rotate(154, 400, 400)" opacity="0.59"></circle>
    <circle r="240" cx="400" cy="400" stroke-width="4.5" stroke-dasharray="391 1508" transform="rotate(141, 400, 400)" opacity="0.63"></circle>
    <circle r="220" cx="400" cy="400" stroke-width="4.5" stroke-dasharray="326 1382" transform="rotate(129, 400, 400)" opacity="0.66"></circle>
    <circle r="200" cx="400" cy="400" stroke-width="4.5" stroke-dasharray="267 1257" transform="rotate(116, 400, 400)" opacity="0.69"></circle>
    <circle r="180" cx="400" cy="400" stroke-width="4.5" stroke-dasharray="213 1131" transform="rotate(103, 400, 400)" opacity="0.73"></circle>
    <circle r="160" cx="400" cy="400" stroke-width="4.5" stroke-dasharray="166 1005" transform="rotate(90, 400, 400)" opacity="0.76"></circle>
    <circle r="140" cx="400" cy="400" stroke-width="4.5" stroke-dasharray="124 880" transform="rotate(77, 400, 400)" opacity="0.80"></circle>
    <circle r="120" cx="400" cy="400" stroke-width="4.5" stroke-dasharray="89 754" transform="rotate(64, 400, 400)" opacity="0.83"></circle>
    <circle r="100" cx="400" cy="400" stroke-width="4.5" stroke-dasharray="59 628" transform="rotate(51, 400, 400)" opacity="0.86"></circle>
    <circle r="80" cx="400" cy="400" stroke-width="4.5" stroke-dasharray="36 503" transform="rotate(39, 400, 400)" opacity="0.90"></circle>
    <circle r="60" cx="400" cy="400" stroke-width="4.5" stroke-dasharray="18 377" transform="rotate(26, 400, 400)" opacity="0.93"></circle>
    <circle r="40" cx="400" cy="400" stroke-width="4.5" stroke-dasharray="6 251" transform="rotate(13, 400, 400)" opacity="0.97"></circle>
    <circle r="20" cx="400" cy="400" stroke-width="4.5" stroke-dasharray="0 126" opacity="1.00"></circle>
  </g>
</svg>