<svg xmlns="http://www.w3.org/2000/svg" version="1.1" xmlns:xlink="http://www.w3.org/1999/xlink" xmlns:svgjs="http://svgjs.dev/svgjs" viewBox="0 0 800 800"><defs><linearGradient x1="50%" y1="0%" x2="50%" y2="100%" id="wwwhirl-grad"><stop stop-color="hsla(206, 71%, 63%, 1)" stop-opacity="1" offset="45%"></stop><stop stop-color="hsla(142, 90%, 56%, 0.24)" stop-opacity="1" offset="100%"></stop></linearGradient></defs><g stroke-width="3" stroke="url(#wwwhirl-grad)" fill="none" stroke-linecap="round"><path d="M-199.50000095605853 408.9604578835914C-182.8472233900318 398.136152465674 -132.88889069195147 341.8497642925036 -99.58333555989796 344.01462537608705C-66.27778042784445 346.17948645967056 -32.972225295790935 417.89050985337326 0.3333298362625783 421.9496243850923C33.63888496831612 426.00873891681135 66.94444010036966 367.5574896600574 100.2499952324232 368.3693125664012C133.5555503644767 369.181135472745 166.86110549653017 428.1736000003948 200.16666062858366 426.8205618231551C233.4722157606372 425.46752364591543 266.7777708926908 359.70986823206727 300.08332602474434 360.2510835029632C333.38888115679777 360.79229877385905 366.6944362888514 428.9854229067386 399.99999142090485 430.06785344853034C433.3055465529584 431.15028399032207 466.61110168501193 365.3926285764739 499.9166568170655 366.7456667537136C533.2222119491189 368.09870493095326 566.5277670811724 434.9387908865932 599.8333222132259 438.1860825119684C633.1388773452795 441.4333741373436 666.444432477333 385.958808870517 699.7499876093864 386.2294165059649C733.05554274144 386.50002414141284 766.3610978734935 440.0803359601039 799.6666530055472 439.809728324656C832.9722081376005 439.53912068920806 866.2777632696541 381.89969433879793 899.5833184017076 384.6057706932773C932.8888735337614 387.31184704775666 982.8472062318415 444.13945049182297 999.4999837978683 456.0461864515321 " transform="rotate(66, 400, 400)"></path><path d="M-172.25000108599664 408.553156887429C-156.35416795478932 398.2208653521442 -108.6666685611672 344.4929493686633 -76.87500229875246 346.55940767572025C-45.083336036337755 348.6258659827772 -13.291669773923076 417.077297404039 18.49999648849169 420.9519067297707C50.291662750906426 424.8265160555025 82.08332901332113 369.03214176496465 113.8749952757359 369.80706363011103C145.6666615381506 370.5819854952574 177.4583278005653 426.89297436255947 209.24999406298002 425.6014379206489C241.04166032539473 424.3099014787383 272.8333265878095 361.5412304018832 304.6249928502242 362.05784497864744C336.41665911263885 362.5744595554117 368.20832537505373 427.66789622770585 399.9999916374684 428.7011253812343C431.79165789988315 429.7343545347628 463.5833241622979 366.96568345790774 495.37499042471256 368.2572198998183C527.1666566871273 369.5487563417289 558.9583229495419 433.3506565721125 590.7499892119566 436.4503440326979C622.5416554743714 439.5500314932833 654.333321736786 386.5970373749488 686.1249879992008 386.8553446633309C717.9166542616157 387.11365195171305 749.7083205240302 438.25849505137273 781.4999867864451 438.0001877629906C813.2916530488599 437.7418804746085 845.0833193112744 382.722428049217 876.8749855736892 385.3055009330382C908.6666518361039 387.88857381685943 956.3541512297261 442.13310437710453 972.2499843609335 453.4986250659178 " transform="rotate(63, 400, 400)"></path><path d="M-145.0000012159348 408.1458711500556C-129.86111251954682 398.30559349740344 -84.44444643038292 347.1361497036121 -54.166669037606994 349.1042052341425C-23.888891644831062 351.072260764673 6.38888574794484 416.26410021349363 36.66666314072077 419.9542043332382C66.94444053349673 423.6443084529828 97.2222179262726 370.506809128661 127.4999953190486 371.24482995260996C157.77777271182453 371.98285077655885 188.05555010460046 425.6123639835132 218.33332749737633 424.3823292769317C248.6111048901522 423.15229457035014 278.88888228292825 363.37260783048816 309.16665967570407 363.8646217131208C339.44443706848006 364.3566355957534 369.72221446125604 426.35038480746215 399.9999918540319 427.33441257272733C430.2777692468078 428.31844033799257 460.5555466395839 368.5387535981306 490.83332403235977 369.76878830471213C521.1111014251356 370.9988230112936 551.3888788179115 431.7625375164208 581.6666562106874 434.7146208122165C611.9444336034634 437.66670410801214 642.2222109962394 387.23528113816974 672.4999883890152 387.48128807948603C702.7777657817912 387.72729502080233 733.055543174567 436.4366694014306 763.3333205673431 436.1906624601143C793.6110979601191 435.944655518798 823.888875352895 383.54517701842514 854.166652745671 386.0052464315882C884.4444301384469 388.4653158447512 929.8610962276107 440.12677352117515 944.9999849239987 450.95107893909255 " transform="rotate(60, 400, 400)"></path><path d="M-117.7500013458729 407.73857778328767C-103.36805708430434 398.3903140132681 -60.222224299598636 349.77934240916636 -31.458335776461524 351.6489951631703C-2.6944472533243697 353.5186479171742 26.069441269812728 415.4508953935538 54.83332979294988 418.9564943073111C83.59721831608704 422.46209322106847 112.36110683922414 371.98146886296286 141.1249953623613 372.6825886457143C169.88888388549844 373.38370842846575 198.65277240863554 424.3317459750724 227.41666093177264 423.16321300382C256.1805494549098 421.99468003256754 284.944437978047 365.20397762969867 313.7083265011841 365.6713908181996C342.47221502432126 366.1388040067006 371.23610354745836 425.03286575782386 399.99999207059545 425.9676921348258C428.76388059373255 426.9025185118278 457.52776911686976 370.1118161089589 486.29165764000686 371.28034908021135C515.055546163144 372.4488820514638 543.819434686281 430.1744108313346 572.5833232094182 432.97888996234053C601.3472117325555 435.7833690933464 630.1111002556925 387.8735172719961 658.8749887788297 388.1072238662466C687.6388773019668 388.3409304604971 716.4027658251039 434.61483612209395 745.1666543482411 434.3811295278434C773.9305428713783 434.14742293359296 802.6944313945153 384.36791835823874 831.4583199176525 386.70498430074366C860.2222084407895 389.0420502432485 903.3680412254953 438.1204350358513 917.7499854870639 448.4035251828728 " transform="rotate(57, 400, 400)"></path><path d="M-90.50000147581103 407.33128823121706C-76.87500164906186 398.4750383438301 -36.00000216881436 352.4225389294179 -8.750002515316027 354.1937889068953C18.499997138182323 355.9650388843727 45.749996791680644 414.6376943883113 72.999996445179 417.9587880960814C100.24999609867734 421.2798818038515 127.49999575217566 373.4561324119619 154.74999540567399 374.1203511535159C181.99999505917236 374.78456989507 209.24999471267068 423.0511317813289 236.499994366169 421.9441005454055C263.7499940196673 420.83706930948216 290.99999367316565 367.0353512436064 318.249993326664 367.4781637379757C345.4999929801623 367.9209762323451 372.74999263366067 423.7153505228829 399.999992287159 424.60097551162164C427.2499919406573 425.4866005003603 454.49999159415574 371.6848824344845 481.74999124765407 372.7919136704079C508.9999909011524 373.8989449063313 536.2499905546506 428.58628796094575 563.4999902081489 431.24316292716185C590.7499898616474 433.9000378933779 617.9999895151456 388.5117572205197 645.249989168644 388.7331634677044C672.4999888221424 388.9545697148891 699.7499884756406 432.79300665745455 726.9999881291391 432.57160041026987C754.2499877826374 432.3501941630852 781.4999874361356 385.1906635127496 808.749987089634 387.4047259845964C835.9999867431325 389.6187884564431 876.8749862233799 436.11410036522466 890.4999860501291 445.8559752413503 " transform="rotate(54, 400, 400)"></path><path d="M-63.250001605749155 406.92398914240323C-50.38194621381939 398.55975313764884 -11.777780038030073 355.06572591292627 13.958330745829471 356.7385731138771C39.694441529689016 358.411420314828 65.43055231354853 413.82448384632556 91.16666309740808 416.9610723481084C116.90277388126762 420.0976608498913 142.6388846651272 374.93078642421784 168.37499544898674 375.5581041245744C194.11110623284628 376.185421824931 219.84721701670577 421.7705080508422 245.5833278005653 420.7249785502479C271.3194385844248 419.6794490496536 297.0555493682844 368.86671532077094 322.79166015214395 369.28492712100865C348.52777093600344 369.70313892124636 374.26388171986304 422.39782575119875 399.9999925037225 423.2342493516742C425.73610328758207 424.0706729521496 451.4722140714417 373.25793922326693 477.20832485530116 374.3034687238613C502.9444356391607 375.34899822445556 528.6805464230201 426.99815555381366 554.4166572068798 429.50742635524C580.1527679907393 432.0166971566663 605.8888787745988 389.1499876323002 631.6249895584584 389.3590935324191C657.361100342318 389.56819943253794 683.0972111261774 430.971167656072 708.8333219100371 430.76206175595314C734.5694326938966 430.5529558558343 760.305543477756 386.0133991305173 786.0416542616157 388.10445813170594C811.7777650454752 390.1955171328945 850.3819312212645 434.10775615785485 863.2499866131943 443.30841576308467 " transform="rotate(51, 400, 400)"></path><path d="M-36.00000173568728 406.51669386828667C-23.888890778576908 398.6444717461649 12.444442092754201 357.70891671113185 36.66666400697494 359.2833611355562C60.88888592119568 360.85780555998053 85.11110783541642 413.0112771190371 109.33332974963716 415.9633604148328C133.55555166385793 418.9154437106284 157.77777357807864 376.405444251171 181.99999549229938 376.9958609103301C206.22221740652014 377.58627756948925 230.44443932074086 420.48988813505275 254.66666123496162 419.5058603697875C278.88888314918233 418.52183260452233 303.1111050634031 370.69808321263275 327.33332697762387 371.0916943187388C351.5555488918446 371.4853054248449 375.77777080606535 421.0803047942119 399.9999927202861 421.86752700642404C424.2222146345068 422.65474921863625 448.4444365487277 374.8309998267467 472.66665846294836 375.81502759201186C496.88888037716913 376.7990553572771 521.1111022913898 425.41002696137883 545.3333242056106 427.77169359801536C569.5555461198313 430.1333602346519 593.777768034052 389.78822185877794 617.9999899482727 389.985027411831C642.2222118624935 390.18183296488405 666.4444337767143 429.14933246938665 690.6666556909349 428.9525269163336C714.8888776051558 428.7557213632806 739.1110995193765 386.8361385629823 763.3333214335972 388.80419409351276C787.555543347818 390.7722496240432 823.8888762191491 432.1014157651823 835.9999871762594 440.7608600995162 " transform="rotate(48, 400, 400)"></path><path d="M-8.750001865625407 406.10940622356463C2.6041646566655743 398.72919798407554 36.666664223538504 360.352115138732 59.37499726812044 361.82815678662985C82.0833303127024 363.3041984345277 104.7916633572843 412.1980780211432 127.49999640186627 414.9656561109516C150.20832944644823 417.73323420076 172.91666249103017 377.8801097075187 195.62499553561213 378.4336253254804C218.33332858019412 378.9871409434421 241.041661624776 419.20927584865785 263.74999466935793 418.2867498187217C286.45832771393987 417.3642237887856 309.16666075852186 372.5294587338891 331.8749938031038 372.89846914586354C354.5833268476857 373.267479557838 377.29165989226766 419.76279146661955 399.99999293684965 420.50081229056843C422.7083259814316 421.2388331145174 445.4166590260136 376.4040680596209 468.12499207059545 377.32659408955703C490.83332511517744 378.24912011949317 513.5416581597593 423.8219059983386 536.2499912043413 426.0359684701853C558.9583242489233 428.250030942032 581.6666572935052 390.42646371465025 604.3749903380872 390.61096892063745C627.0833233826692 390.7954741266247 649.7916564272509 427.3275049120959 672.499989471833 427.1429997061087C695.208322516415 426.95849450012145 717.9166555609968 387.6588856248418 740.6249886055788 389.5039376847141C763.3333216501609 391.3489897445864 797.3958212170337 430.0950830019043 808.7499877393246 438.2133120653424 " transform="rotate(45, 400, 400)"></path><path d="M18.500001819133736 405.7021071347508C29.097223906605308 398.8139127778943 60.888890169020044 362.9953021222404 82.0833343439632 364.3729409936117C103.27777851890633 365.75057986498297 124.47222269384946 411.3848674791575 145.66666686879262 413.96794036297865C166.8611110437358 416.55101324679987 188.05555521867893 379.3547637197746 209.2499993936221 379.87137829653886C230.44444356856525 380.3879928733031 251.63888774350835 417.92865211817116 272.8333319184515 417.06762782356407C294.02777609339466 416.20660352895703 315.2222202683378 374.36082281105365 336.416664443281 374.7052325288965C357.61110861822414 375.0496422467393 378.80555279316735 418.4452666949354 399.9999969681104 419.13408613062103C421.1944411430536 419.8229055663067 442.38888531799677 377.9771248484033 463.5833294929399 378.8381491430104C484.777773667883 379.69917343761745 505.972217842826 422.2337735912065 527.1666620177693 424.30023189826346C548.3611061927124 426.3666902053204 569.5555503676555 391.0646941264307 590.7499945425988 391.2368989853521C611.944438717542 391.40910384427355 633.138882892485 425.50566591071333 654.3333270674283 425.3334610517919C675.5277712423714 425.1612561928705 696.7222154173145 388.48162124260955 717.9166595922577 390.2036698318237C739.1111037672008 391.9257184210378 770.9027700296156 428.08873879453455 781.4999921170871 435.6657525870767 " transform="rotate(42, 400, 400)"></path><path d="M45.750001689195614 405.29481567533156C55.59027934184779 398.89863520110765 85.11111229980432 365.6384967351433 104.79166760510867 366.91773282998804C124.47222291041302 368.19696892483285 144.15277821571738 410.57166456656626 163.83333352102173 412.9702322444002C183.5138888263261 415.3687999222342 203.19444413163043 380.8294253614251 222.8749994369348 381.3091388969919C242.55555474223917 381.78885243255866 262.2361100475435 416.648036017079 281.9166653528479 415.848513457801C301.5972206581522 415.048990898523 321.2777759634566 376.19219451761273 340.9583312687609 376.5120035413239C360.6388865740652 376.83181256503514 380.31944187936966 417.1277495526458 399.999997184674 417.7673676000682C419.6805524899783 418.40698564749056 439.3611077952827 379.5501892665803 459.041663100587 380.34971182585826C478.7222184058914 381.14923438513625 498.4027737111958 420.64564881346894 518.0833290165001 422.56450295573615C537.7638843218044 424.4833570980033 557.4444396271087 391.70293216760575 577.1249949324132 391.86283667946134C596.8055502377176 392.0227411913169 616.4861055430218 423.6838345387253 636.1666608483263 423.5239300268697C655.8472161536306 423.36402551501413 675.5277714589349 389.3043644897718 695.2083267642392 390.90340960832776C714.8888820695437 392.50245472688374 744.4097150275002 426.0824022165593 754.2499926801523 433.1182007382056 " transform="rotate(39, 400, 400)"></path><path d="M73.0000015592575 404.88752230856363C82.08333477709027 398.9833557169723 109.33333443058861 368.2816894406975 127.50000086625417 369.46252275901577C145.66666730191972 370.64335607733403 163.83333373758524 409.75845974662644 182.00000017325084 411.9725222184732C200.1666666089164 414.18658469031993 218.33333304458193 382.30408509572686 236.4999994802475 382.74689759009624C254.66666591591306 383.18971008446556 272.83333235157863 415.3674180086382 290.9999987872442 414.6293971846893C309.1666652229097 413.89137636074037 327.3333316585753 378.0235643168232 345.4999980942408 378.31877264640275C363.6666645299064 378.6139809759823 381.833330965572 415.8102305030076 399.9999974012375 416.4006471621667C418.16666383690307 416.99106382132584 436.3333302725687 381.12325177740865 454.49999670823416 381.86127260135754C472.6666631438997 382.5992934253064 490.8333295795652 419.05752212838274 508.9999960152308 420.82877210586014C527.1666624508964 422.60002208333754 545.333328886562 392.3411683014321 563.4999953222275 392.4887724662219C581.666661757893 392.6363766310117 599.8333281935586 421.86200125938865 617.9999946292243 421.71439709459884C636.1666610648898 421.5667929298091 654.3333275005552 390.1271058295854 672.4999939362208 391.6031474774832C690.6666603718865 393.07918912538105 717.9166600253848 424.07606373123537 726.9999932432175 430.5706469819858 " transform="rotate(36, 400, 400)"></path><path d="M100.25000142931935 404.48022703444707C108.57639021233274 399.0680743254884 133.5555565613729 370.92488023890314 150.20833412739967 372.0073107806949C166.8611116934264 373.08974132248665 183.51388925945315 408.945253019338 200.16666682547992 410.9748102851975C216.8194443915067 413.00436755105704 233.47222195753346 383.77874292268007 250.12499952356023 384.18465437585195C266.77777708958695 384.5905658290239 283.4305546556137 414.08679809284877 300.0833322216405 413.4102790042289C316.73610978766726 412.7337599156091 333.38888735369403 379.854932208685 350.0416649197208 380.12553984413296C366.6944424857475 380.39614747958086 383.34722005177434 414.4927095460207 399.99999761780106 415.0339248169165C416.6527751838278 415.57514008781243 433.3055527498546 382.69631238088834 449.95833031588137 383.3728314695082C466.6111078819081 384.049350558128 483.26388544793485 417.469393535948 499.91666301396157 419.09303934863556C516.5694405799884 420.7166851613232 533.2222181460152 392.9794025279098 549.8749957120418 393.1147063456338C566.5277732780687 393.2500101633578 583.1805508440954 420.04016607270336 599.8333284101222 419.9048622549794C616.4861059761489 419.7695584372554 633.1388835421757 390.94984526205036 649.7916611082024 392.30288343929C666.4444386742293 393.65592161652967 691.4236050232694 422.0697233385628 699.7499938062828 428.0230913184174 " transform="rotate(33, 400, 400)"></path><path d="M127.50000129938124 404.0729336676792C135.0694456475752 399.15279484135306 157.77777869215717 373.5680729444574 172.91666738854514 374.55210070972265C188.0555560849331 375.53612847498783 203.19444478132107 408.1320481993982 218.333333477709 409.97710025927046C233.472222174097 411.82215231914273 248.61111087048494 385.2534026569819 263.74999956687293 385.62241306895635C278.8888882632609 385.9914234809308 294.02777695964886 412.80618008440797 309.1666656560368 412.19116273111723C324.30555435242474 411.57614537782644 339.4444430488128 381.68630200789545 354.58333174520067 381.93230894921174C369.72222044158866 382.1783158905281 384.86110913797665 413.1751904963824 399.9999978343646 413.66720437901506C415.13888653075253 414.15921826164765 430.2777752271406 384.26937489171667 445.4166639235285 384.8843922450074C460.55555261991645 385.4994095982982 475.6944413163044 415.8812668508618 490.83333001269233 417.3573084987596C505.9722187090803 418.83335014665744 521.1111074054684 393.61763866173624 536.2499961018563 393.7406421323944C551.3888847982442 393.86364560305253 566.5277734946321 418.2183327933667 581.6666621910201 418.0953293227085C596.8055508874081 417.97232585205035 611.9444395837961 391.77258660186396 627.0833282801841 393.00262130844544C642.2222169765721 394.232656015027 664.930550021154 420.063384853239 672.499994369348 425.47553756219764 " transform="rotate(30, 400, 400)"></path><path d="M154.75000116944312 403.6656422082599C161.5625010828177 399.2375172645664 182.00000082294144 376.2112675573603 195.6250006496906 377.096892546099C209.2500004764398 377.9825175348377 222.87500030318895 407.318845286807 236.50000012993814 408.9793921406921C250.1249999566873 410.6399389945771 263.74999978343646 386.7280642986323 277.3749996101856 387.0601736694093C290.9999994369348 387.3922830401863 304.624999263684 411.5255639833158 318.2499990904331 410.9720483653541C331.8749989171823 410.4185327473924 345.4999987439314 383.51767371445453 359.12499857068065 383.7390799616392C372.74999839742975 383.9604862088239 386.37499822417897 411.8576733540928 399.9999980509281 412.3004858484622C413.6249978776773 412.7432983428315 427.2499977044265 385.8424393098936 440.87499753117567 386.3959549278553C454.4999973579248 386.949470545817 468.12499718467393 414.2931420731242 481.7499970114231 415.6215795562323C495.3749968381723 416.9500170393403 508.9999966649214 394.2558767029112 522.6249964916706 394.3665798265036C536.2499963184198 394.4772829500959 549.874996145169 416.3965014213786 563.4999959719182 416.2857982977863C577.1249957986673 416.175095174194 590.7499956254164 392.5953298490262 604.3749954521656 393.70236108494953C617.9999952789149 394.8093923208729 638.4374950190386 418.0570482752637 645.2499949324132 422.9279857133265 " transform="rotate(27, 400, 400)"></path><path d="M182.00000103950498 403.25834884149197C188.05555651806017 399.32223778043107 206.22222295372575 378.8544602629146 218.3333339108361 379.64168247512674C230.44444486794646 380.4289046873389 242.55555582505684 406.5056404668672 254.66666678216723 407.981682114765C266.7777777392776 409.45772376266285 278.88888869638794 388.20272403293416 290.9999996534983 388.4979323625137C303.1111106106087 388.7931406920933 315.2222215677191 410.244945974875 327.3333325248294 409.7529320922424C339.4444434819398 409.26091820960977 351.5555544390502 385.349043513665 363.66666539616057 385.54584906671806C375.77777635327095 385.7426546197711 387.8888873103813 410.5401543044546 399.9999982674917 410.9337654105607C412.11110922460205 411.32737651666673 424.2222201817125 387.41550182072194 436.3333311388228 387.9075157033546C448.4444420959332 388.3995295859872 460.5555530530435 412.7050153880381 472.6666640101539 413.88584870635634C484.7777749672643 415.0666820246746 496.8888859243746 394.89411283673763 508.999996881485 394.9925156132641C521.1111078385954 395.09091838979066 533.2222187957058 414.57466814204196 545.3333297528161 414.4762653655155C557.4444407099265 414.37786258898893 569.5555516670369 393.4180711888398 581.6666626241472 394.402098954105C593.7777735812576 395.3861267193702 611.9444400169232 416.0507097899398 617.9999954954783 420.38043195710674 " transform="rotate(24, 400, 400)"></path><path d="M209.25000090956686 402.85105738207267C214.54861195330267 399.4069602036444 230.44444508451002 381.4976548758175 241.0416671719816 382.1864743115031C251.63888925945315 382.8752937471888 262.23611134692476 405.692437554276 272.8333334343963 406.9839739961866C283.4305555218679 408.27551043809717 294.02777760933947 389.67738567458457 304.6249996968111 389.9356929629667C315.2222217842826 390.1940002513488 325.8194438717542 408.96432987378284 336.4166659592257 408.5338177264793C347.01388804669733 408.10330557917575 357.61111013416894 387.18041522022406 368.2083322216405 387.3526200791455C378.80555430911204 387.5248249380669 389.4027763965837 409.222637162165 399.9999984840552 409.5670468800078C410.5972205715268 409.91145659785064 421.19444265899836 388.98856623889895 431.79166474646996 389.41907838620244C442.3888868339415 389.849590533506 452.986108921413 411.1168906103005 463.58333100888467 412.15011976382897C474.1805530963562 413.1833489173575 484.77777518382777 395.5323508779126 495.3749972712994 395.61845330737333C505.972219358771 395.70455573683404 516.5694414462425 412.75283677005393 527.1666635337142 412.6667343405932C537.7638856211856 412.5806319111325 548.3611077086573 394.24081443600204 558.9583297961289 395.1018387306091C569.5555518836004 395.96286302521617 585.4513850148078 414.0443732119645 590.7499960585435 417.8328801082356 " transform="rotate(21, 400, 400)"></path><path d="M236.50000077962875 402.4437621079561C241.04166738854514 399.4916788121605 254.6666672152943 384.14084567402307 263.75000043312707 384.7312623331822C272.83333365095984 385.32167899234133 281.9166668687926 404.87923082698757 291.0000000866254 405.9862620629109C300.08333330445817 407.0932932988343 309.16666652229094 391.1520435015378 318.24999974012377 391.3734497487224C327.33333295795654 391.5948559959071 336.4166661757893 407.6837099579934 345.4999993936221 407.31469954601897C354.58333261145486 406.9456891340445 363.66666582928764 389.01178311208594 372.7499990471204 389.1593872768757C381.83333226495324 389.3069914416655 390.916665482786 407.9051162051781 399.9999987006188 408.20032453475767C409.08333191845156 408.49553286433724 418.16666513628434 390.56162684237864 427.2499983541171 390.9306372543531C436.3333315719499 391.29964766632753 445.4166647897826 409.5287620178657 454.49999800761543 410.4143870066044C463.5833312254482 411.3000119953431 472.666664443281 396.1705851043904 481.74999766111375 396.2443871867853C490.8333308789465 396.31818926918015 499.9166640967793 410.93100158336864 508.99999731461213 410.85719950097376C518.083330532445 410.78339741857883 527.1666637502776 395.063553868467 536.2499969681104 395.8015746924159C545.3333301859432 396.53959551636484 558.9583300126924 412.038032819292 563.4999966216087 415.2853244446672 " transform="rotate(18, 400, 400)"></path><path d="M263.7500006496906 402.0364677875139C267.5347228237876 399.57639837435084 278.8888893460786 386.784037425903 286.4583336942726 387.2760513085356C294.02777804246654 387.76806519116826 301.59722239066053 404.06602505337344 309.1666667388545 404.9885510833096C316.73611108704847 405.9110771132457 324.30555543524247 392.62670228216524 331.87499978343646 392.8112074881525C339.44444413163046 392.9957126941397 347.01388847982446 406.4030909958783 354.5833328280184 406.0955823192329C362.15277717621234 405.78807364258756 369.7222215244064 390.84315195762207 377.29166587260033 390.9661554282802C384.86111022079433 391.08915889893836 392.4305545689883 406.58759620186555 399.9999989171823 406.83360314318185C407.56944326537626 407.07961008449814 415.1388876135703 392.13468839953265 422.70833196176426 392.44219707617805C430.2777763099582 392.7497057528234 437.8472206581522 407.9406343791052 445.4166650063462 408.6786552030541C452.9861093545402 409.416676027003 460.5555537027342 396.80882028454243 468.1249980509281 396.8703220198715C475.6944423991221 396.9318237552006 483.26388674731606 409.10916735035767 490.83333109551006 409.04766561502856C498.40277544370406 408.9861638796995 505.97221979189806 395.8862942546063 513.541664140092 396.50131160789704C521.111108488286 397.11632896118783 532.465275010577 410.0316933802938 536.2499971846739 412.73776973477317 " transform="rotate(15, 400, 400)"></path><path d="M291.0000005197525 401.629174420746C294.0277782590301 399.66111889021556 303.1111114768629 389.4272301314573 309.16666695541807 389.8208412375634C315.22222243397323 390.21445234366945 321.27777791252845 403.25282023343357 327.3333333910836 403.9908410573825C333.3888888696388 404.7288618813314 339.444444348194 394.1013620164671 345.49999982674916 394.24896618125683C351.5555553053043 394.39657034604664 357.61111078385954 405.1224729874375 363.6666662624147 404.8764660461212C369.72222174096987 404.6304591048049 375.7777772195251 392.6745217568325 381.8333326980803 392.772924533359C387.8888881766355 392.87132730988554 393.94444365519064 405.2700771522273 399.99999913374586 405.46688270528034C406.055554612301 405.66368825833337 412.11111009085624 393.70775091036097 418.1666655694114 393.95375785167727C424.2222210479666 394.19976479299356 430.27777652652173 406.35250769401904 436.33333200507695 406.94292435317817C442.3888874836322 407.5333410123373 448.4444429621873 397.4470564183688 454.4999984407425 397.49625780663206C460.5555539192977 397.54545919489533 466.6111093978529 407.287334071021 472.66666487640805 407.23813268275774C478.72222035496327 407.18893129449447 484.77777583351843 396.7090355944199 490.8333313120736 397.2010494770525C496.8888867906288 397.6930633596851 505.9722200084616 408.0253548949699 508.99999774773914 410.1902159785534 " transform="rotate(12, 400, 400)"></path><path d="M318.2500003898144 401.2218805771409C320.5208336942726 399.74583892924306 327.33333360764715 392.0704223601744 331.87500021656354 392.36563068975397C336.4166668254799 392.66083901933354 340.9583334343963 402.4396149366566 345.5000000433127 402.9931305546183C350.0416666522291 403.54664617258 354.58333326114547 395.5760212739317 359.12499987006186 395.6867243975241C363.6666664789783 395.7974275211164 368.20833308789463 403.84185450215955 372.7499996968111 403.6573492961723C377.2916663057274 403.4728440901851 381.83333291464385 394.5058910792058 386.3749995235602 394.5796931616007C390.9166661324766 394.65349524399556 395.458332741393 403.95255762575187 399.9999993503094 404.1001617905417C404.5416659592258 404.24776595533143 409.08333256814217 395.28081294435214 413.62499917705856 395.4653181503394C418.16666578597494 395.64982335632664 422.7083323948913 404.7643805320957 427.2499990038077 405.20719302646506C431.7916656127241 405.6500055208344 436.3333322216405 398.08529207535804 440.8749988305569 398.1221931165555C445.41666543947326 398.1590941577529 449.95833204838965 405.46550031484713 454.49999865730604 405.4285992736497C459.0416652662225 405.39169823245226 463.5833318751388 397.53177645739635 468.1249984840552 397.9007868693708C472.6666650929716 398.26979728134523 479.4791650063462 406.0190159328088 481.74999831080436 407.64266174549647 " transform="rotate(9, 400, 400)"></path><path d="M345.5000040745735 400.814587210373C347.01389294421233 399.8305594451078 351.5555595531287 394.7136150657286 354.5833372924063 394.9104206187817C357.6111150316839 395.1072261718347 360.6388927709615 401.6264101167168 363.6666705102391 401.9954205286912C366.69444824951665 402.3644309406657 369.72222598879426 397.05068100823354 372.7500037280719 397.1244830906284C375.7777814673494 397.1982851730233 378.80555920662704 402.56123649371875 381.83333694590465 402.4382330230606C384.8611146851822 402.31522955240246 387.8888924244598 396.33726087841626 390.9166701637374 396.38646226667953C393.944447903015 396.4356636549428 396.9722256422926 402.63503857611363 400.0000033815702 402.73344135264017C403.02778112084775 402.8318441291667 406.0555588601254 396.8538754551805 409.08333659940297 396.97687892583866C412.1111143386806 397.0998823964968 415.13889207795813 403.1762538470095 418.16666981723574 403.47146217658906C421.19444755651335 403.7666705061686 424.2222252957909 398.7235282091844 427.2500030350685 398.74812890331606C430.2777807743461 398.77272959744766 433.30555851362374 403.6436670355105 436.3333362529013 403.61906634137887C439.3611139921789 403.5944656472472 442.3888917314565 398.35451779720995 445.41666947073406 398.60052473852625C448.4444472100117 398.84653167984254 452.98611381892806 404.012677447485 454.50000268856684 405.0951079892767 " transform="rotate(6, 400, 400)"></path><path d="M372.75000012993814 400.40729336676793C373.50694456475753 399.9152794841353 375.7777778692157 397.35680729444573 377.29166673885453 397.45521007097227C378.8055556084933 397.5536128474988 380.31944447813214 400.8132048199398 381.8333333477709 400.99771002592706C383.3472222174097 401.18221523191426 384.86111108704847 398.52534026569816 386.3749999566873 398.56224130689566C387.8888888263261 398.5991423480931 389.4027776959649 401.2806180084408 390.9166665656037 401.2191162731117C392.43055543524247 401.15761453778265 393.94444430488124 398.16863020078955 395.4583331745201 398.19323089492116C396.97222204415885 398.2178315890528 398.4861109137977 401.31751904963824 399.99999978343646 401.3667204379015C401.51388865307524 401.4159218261648 403.0277775227141 398.4269374891717 404.54166639235285 398.4884392245007C406.0555552619917 398.5499409598298 407.56944413163046 401.5881266850862 409.08333300126924 401.73573084987595C410.597221870908 401.88333501466576 412.1111107405468 399.36176386617365 413.6249996101856 399.3740642132394C415.13888847982446 399.38636456030525 416.65277734946324 401.82183327933666 418.166666219102 401.8095329322708C419.6805550887408 401.79723258520505 421.1944439583796 399.1772586601864 422.7083328280184 399.30026213084454C424.22222169765723 399.4232656015027 426.4930550021154 402.0063384853239 427.2499994369348 402.54755375621977 " transform="rotate(3, 400, 400)"></path></g></svg>